<?xml version="1.0" encoding="utf-8"?>
<!-- Generator: Adobe Illustrator 21.0.0, SVG Export Plug-In . SVG Version: 6.00 Build 0)  -->
<svg version="1.1" xmlns="http://www.w3.org/2000/svg" xmlns:xlink="http://www.w3.org/1999/xlink" x="0px" y="0px"
	 viewBox="0 0 421.3 120.7" style="enable-background:new 0 0 421.3 120.7;" xml:space="preserve">
<style type="text/css">
	.st0{fill:#444545;}
	.st1{fill:#FFFFFF;}
</style>
<g id="Layer_3">
</g>
<g id="Layer_1">
	<g>
		<g>
			<path class="st0" d="M47.7,96.6l-2.2-9H32.3l-1.8,8h-19L33.2,31l3,1.1L42,12.7l25.3,81.9L47.7,96.6z M38.8,59.3L35,75.7h7.7
				L38.8,59.3z"/>
			<path class="st0" d="M75.2,95.6L60.9,53.9l18.6-2.5l3.6,17c0.8,3.8,1.9,8.3,2.4,13.3c0.5-5,1.7-9.5,2.5-13.3l3.6-17l17,1.5
				L94.5,95.6H75.2z"/>
			<path class="st0" d="M136.9,96.8l-2.8-5.9c-2.3,3.5-6.4,5.7-11.4,5.7c-11.6,0-15.4-4.6-15.4-13.1c0-8,5-12.6,24-13.6
				c-0.2-3.5-2.9-4.5-5.8-4.5c-3.8,0-8,0.8-12,2.8l-4.9-11.8c5.4-3,11.8-4.9,19.8-4.9c12.3,0,20.1,7.8,20.1,16.7v8.2
				c0,6.1,0.4,11.2,1.3,16.8L136.9,96.8z M131.3,77.4c-5,0.2-7.2,1.8-7.2,4.2c0,2.4,1,3.3,3.4,3.3c2,0,3.1-1.3,3.8-2.9V77.4z"/>
			<path class="st0" d="M154.9,95.6c-1.4-4.2-2.2-9.2-2.2-14.7V40.2l17.2-2v44c0,4.4,0.2,9.8,1,13.4H154.9z"/>
			<path class="st0" d="M202.9,96.8l-2.8-5.9c-2.3,3.5-6.4,5.7-11.4,5.7c-11.6,0-15.4-4.6-15.4-13.1c0-8,5-12.6,24-13.6
				c-0.2-3.5-2.9-4.5-5.8-4.5c-3.8,0-8,0.8-12,2.8l-4.9-11.8c5.4-3,11.8-4.9,19.8-4.9c12.3,0,20.1,7.8,20.1,16.7v8.2
				c0,6.1,0.4,11.2,1.3,16.8L202.9,96.8z M197.2,77.4c-5,0.2-7.2,1.8-7.2,4.2c0,2.4,1,3.3,3.4,3.3c2,0,3.1-1.3,3.8-2.9V77.4z"/>
			<path class="st0" d="M266.9,95.6v-24c0-5.5-1.4-6.6-3.4-6.6c-1.4,0-2.5,0.9-3.4,2v28.6h-17.2v-24c0-5.5-1.4-6.6-3.4-6.6
				c-1.4,0-2.5,0.9-3.4,2v28.6h-17.2V71.8c0-6.1-0.4-11.2-1.3-16.8l12.8-3.6l2.8,5.7c2.3-3.4,5-5.7,11.4-5.7c7,0,10.9,2.2,13,5.3
				c2.2-3.2,5-5.3,11.1-5.3c15.4,0,15.6,10.4,15.6,18.1v26.1H266.9z"/>
			<path class="st0" d="M288.1,107.9V71.8c0-6.1-0.4-11.2-1.3-16.8l12.8-3.6l2.8,5.7c2.3-3.9,5.9-5.7,11.4-5.7
				c10.7,0,17,4.5,17,22.6c0,17.9-9.9,22.6-19.2,22.6c-2.6,0-5.3-0.4-6.9-2.3c0.6,2.2,0.6,4.5,0.6,7.8v5.9H288.1z M308.5,83.2
				c4.5,0,4.9-3.9,4.9-9.1c0-5.6-0.5-9-4.5-9c-1.4,0-2.6,0.9-3.6,2v15.7C306.5,83,307.6,83.2,308.5,83.2z"/>
			<path class="st0" d="M351.3,96.6c-11.9,0-19.4-7.4-19.4-22.6s7.4-22.6,19.4-22.6c5.9,0,11.8,1,16.2,3.9l-5.1,12.1
				c-2.5-1.2-5-1.4-7-1.4c-4.2,0-6.1,2.2-6.1,7.9c0,5.7,1.9,7.9,6.1,7.9c2,0,4.5-0.2,7-1.4l5.1,12.1
				C363.2,95.6,357.3,96.6,351.3,96.6z"/>
			<path class="st0" d="M392.5,95.6v-24c0-5.5-1.5-6.6-3.6-6.6c-1.4,0-2.6,0.9-3.5,2v28.6h-17.2V40.2l17.2-2v18.3
				c1.8-3.9,5.5-5,10.6-5c12,0,13.7,10.4,13.7,18.1v26.1H392.5z"/>
		</g>
		<polygon class="st1" points="42,15.1 36.6,33 33.6,31.9 30.5,40.8 34.7,36.8 40.1,47.3 43.5,37.7 54.1,54.7 		"/>
	</g>
</g>
</svg>
